<svg width="834" height="42" viewBox="0 0 834 42" fill="none" xmlns="http://www.w3.org/2000/svg">
<path fill-rule="evenodd" clip-rule="evenodd" d="M0 42L34.7018 37.0099C69.4036 32.0198 138.807 22.0396 208.789 22.0396C278.193 22.0396 347.596 32.0198 417 35.0693C486.404 37.9802 555.807 33.9604 625.789 31.0495C695.193 28 764.596 26.0594 799.298 24.9505L834 23.9802V0H799.298C764.596 0 695.193 0 625.789 0C555.807 0 486.404 0 417 0C347.596 0 278.193 0 208.789 0C138.807 0 69.4036 0 34.7018 0H0V42Z" fill="#0099FF"/>
</svg>
